<svg width="74" height="36" viewBox="0 0 74 36" fill="none" xmlns="http://www.w3.org/2000/svg">
<g clip-path="url(#clip0)">
<path d="M13.5212 6.86773C12.654 7.88094 11.2662 8.68037 9.87859 8.56606C9.70515 7.1961 10.3845 5.74022 11.1795 4.84104C12.0467 3.79929 13.5646 3.05708 14.7932 3C14.9378 4.42719 14.3741 5.82584 13.5214 6.86773H13.5212ZM14.7788 8.83734C12.7695 8.72318 11.0494 9.96471 10.0954 9.96471C9.12703 9.96471 7.66698 8.89443 6.07699 8.92297C4.01005 8.95151 2.08749 10.1074 1.03227 11.9486C-1.13599 15.6308 0.468599 21.0829 2.56445 24.0799C3.59076 25.5642 4.81942 27.1912 6.43832 27.1341C7.97064 27.077 8.57767 26.1494 10.428 26.1494C12.2926 26.1494 12.8275 27.1341 14.4464 27.1056C16.1231 27.077 17.1783 25.6214 18.2046 24.137C19.3753 22.453 19.8524 20.8116 19.8813 20.7259C19.8524 20.6974 16.6435 19.4844 16.6146 15.8306C16.5857 12.7764 19.1442 11.3207 19.2598 11.2351C17.8142 9.12275 15.5594 8.89443 14.7788 8.83734ZM26.3861 4.69833V26.9487H29.884V19.3417H34.7264C39.1495 19.3417 42.2573 16.3446 42.2573 12.0058C42.2573 7.66716 39.2073 4.69847 34.842 4.69847H26.3859L26.3861 4.69833ZM29.884 7.60994H33.9169C36.9525 7.60994 38.687 9.20838 38.687 12.0199C38.687 14.8315 36.9525 16.4444 33.9024 16.4444H29.884V7.60994ZM48.6463 27.1198C50.8435 27.1198 52.8815 26.021 53.8067 24.2797H53.8789V26.9486H57.1169V15.8734C57.1169 12.6623 54.515 10.5928 50.5109 10.5928C46.7961 10.5928 44.0497 12.6908 43.9485 15.5737H47.0997C47.3599 14.2036 48.6462 13.3044 50.4098 13.3044C52.5491 13.3044 53.7489 14.2892 53.7489 16.1019V17.3291L49.3834 17.586C45.3217 17.8286 43.1247 19.47 43.1247 22.3245C43.1247 25.2075 45.394 27.1198 48.6463 27.1198ZM49.5858 24.4795C47.7213 24.4795 46.5359 23.5947 46.5359 22.2388C46.5359 20.8403 47.6778 20.0267 49.8605 19.8983L53.7489 19.6557V20.9115C53.7489 22.9952 51.9565 24.4795 49.5859 24.4795H49.5858ZM61.4388 33C64.8502 33 66.4546 31.7157 67.8567 27.8192L74 10.8068H70.4441L66.3245 23.9514H66.2523L62.1327 10.8068H58.4756L64.402 27.0057L64.084 27.9905C63.5492 29.6603 62.6819 30.3026 61.1353 30.3026C60.8607 30.3026 60.3259 30.274 60.109 30.2455V32.9144C60.3113 32.9715 61.1785 33 61.4388 33Z" fill="#C0C0D6"/>
</g>
<defs>
<clipPath id="clip0">
<rect width="74" height="36" fill="white"/>
</clipPath>
</defs>
</svg>
