<svg width="28" height="30" viewBox="0 0 28 30" fill="none" xmlns="http://www.w3.org/2000/svg">
<g clip-path="url(#clip0_522_6556)">
<path d="M2.43208 7.50856C2.86384 6.8626 3.26508 6.1945 3.75155 5.5894C4.63635 4.48882 5.6383 3.54562 6.78563 2.7649C7.81486 2.06458 8.90025 1.51258 10.0617 1.1266C11.8702 0.525516 13.7162 0.346776 15.5966 0.576696C16.9711 0.744756 18.2953 1.12072 19.5565 1.7296C20.32 2.09812 21.0381 2.55346 21.7419 3.04522C23.1603 4.03612 24.2966 5.32606 25.2464 6.79984C26.2609 8.374 26.9202 10.1251 27.2818 12.0033C27.5358 13.3223 27.6429 14.6536 27.534 15.9936C27.3996 17.6457 27.0572 19.2387 26.4174 20.7698C25.8764 22.0648 25.2085 23.2539 24.3532 24.3279C23.5166 25.3785 22.5731 26.2977 21.4889 27.0555C20.7506 27.5715 19.981 28.0321 19.1686 28.374C17.8092 28.9463 16.3995 29.3332 14.9245 29.4009C13.886 29.4486 12.8533 29.4299 11.8289 29.2352C10.949 29.0679 10.0901 28.8237 9.24935 28.4854C8.43366 28.1572 7.64254 27.7684 6.91365 27.2768C5.86275 26.5681 4.9154 25.708 4.07238 24.717C3.13309 23.6129 2.37149 22.3886 1.78875 21.0364C0.965552 19.1263 0.560728 17.1123 0.536648 15.0109C0.527576 14.2205 0.612192 13.4363 0.710528 12.6539C0.717584 12.5979 0.710416 12.54 0.709856 12.4829C0.795872 12.4257 0.788256 12.3258 0.803768 12.2386C1.0225 11.0096 1.39143 9.83506 1.89118 8.70424C2.06825 8.3038 2.31258 7.9384 2.43208 7.50856ZM18.2088 15.2708C18.5749 15.0623 18.9227 14.9429 19.1976 14.6798C20.257 13.6658 20.5394 11.2794 18.8198 10.1298C18.2841 9.77164 17.7127 9.5062 17.0967 9.23536C17.1986 8.3515 17.5284 7.5244 17.6355 6.61918C17.1273 6.48424 16.6512 6.30514 16.1557 6.2476C15.9532 7.09822 15.759 7.91374 15.558 8.75782C15.1783 8.63326 14.7874 8.64508 14.43 8.42944C14.5589 7.56604 14.8653 6.75712 14.949 5.8906C14.427 5.80276 13.9849 5.58496 13.4782 5.5615C13.2787 6.41404 13.0856 7.23898 12.8854 8.0944C11.8805 7.9294 10.9579 7.55914 9.94426 7.36006C9.72155 7.89466 9.62293 8.45872 9.53355 9.05884C9.86373 9.14236 10.1508 9.21622 10.4384 9.2875C11.1644 9.46738 11.3634 9.89266 11.191 10.5729C11.0683 11.0568 10.9577 11.5443 10.8448 12.031C10.4391 13.7806 10.0366 15.531 9.62847 17.2799C9.53652 17.6739 9.30737 17.8023 8.93419 17.7438C8.56666 17.6862 8.21979 17.5094 7.81474 17.5222C7.63913 18.1241 7.28958 18.6545 7.16582 19.319C8.13103 19.5824 9.06483 19.8373 10.0411 20.1038C9.96761 21.0162 9.6147 21.8513 9.51042 22.7702C9.99981 22.8959 10.4605 23.0142 10.9409 23.1376C11.2575 22.295 11.3305 21.4094 11.6255 20.5378C11.9812 20.7337 12.3758 20.6768 12.7238 20.9234C12.5341 21.7636 12.3451 22.6005 12.1538 23.448C12.6571 23.641 13.148 23.7197 13.6523 23.8542C13.8564 22.978 14.0538 22.1306 14.2447 21.3111C14.3636 21.2456 14.4505 21.2578 14.5327 21.2766C15.323 21.4579 16.1225 21.5002 16.9225 21.405C17.6151 21.3227 18.2297 21.0398 18.7228 20.4827C19.2711 19.8633 19.5466 19.1056 19.6792 18.2906C19.7873 17.6267 19.7596 16.954 19.3958 16.3664C19.1107 15.9059 18.7191 15.5546 18.2088 15.2708ZM12.4952 18.7302C13.4702 18.9897 14.4441 19.2672 15.4643 19.0676C16.0083 18.9612 16.4184 18.6638 16.5834 18.0774C16.7391 17.5244 16.6486 17.0219 16.2658 16.5847C15.8676 16.1301 15.3555 15.8939 14.8276 15.6963C14.1968 15.4602 13.5573 15.2458 12.8681 15.1875C12.604 16.3376 12.3477 17.4539 12.0857 18.5948C12.2526 18.6505 12.3722 18.6975 12.4952 18.7302ZM15.9392 13.9107C16.4783 13.8287 16.9254 13.4465 17.0568 12.9272C17.2175 12.2922 17.0379 11.7353 16.5583 11.3565C16.0141 10.9267 15.3875 10.7081 14.74 10.5563C14.4988 10.4997 14.2615 10.349 13.9696 10.4507C13.7376 11.4609 13.5047 12.4755 13.2641 13.5233C14.1857 13.7726 15.0343 14.0484 15.9392 13.9107Z" fill="#C0C0D6"/>
</g>
<defs>
<clipPath id="clip0_522_6556">
<rect width="28" height="30" fill="white"/>
</clipPath>
</defs>
</svg>
