<svg width="76" height="36" viewBox="0 0 76 36" fill="none" xmlns="http://www.w3.org/2000/svg">
<path d="M35.4737 17.5906V26.4357H32.6837V4.59357H40.0802C41.9547 4.59357 43.5532 5.22223 44.861 6.47953C46.1979 7.73684 46.8663 9.27193 46.8663 11.0848C46.8663 12.9415 46.1979 14.4766 44.861 15.7193C43.5677 16.962 41.9693 17.576 40.0802 17.576H35.4737V17.5906ZM35.4737 7.28363V14.9006H40.1383C41.2427 14.9006 42.1727 14.5205 42.8993 13.7749C43.6404 13.0292 44.0182 12.1228 44.0182 11.0994C44.0182 10.0906 43.6404 9.19883 42.8993 8.45322C42.1727 7.67836 41.2572 7.29824 40.1383 7.29824H35.4737V7.28363Z" fill="#C0C0D6"/>
<path d="M54.1575 10.9971C56.221 10.9971 57.8485 11.5526 59.04 12.6637C60.2316 13.7748 60.8274 15.2953 60.8274 17.2251V26.4357H58.1682V24.3596H58.0519C56.9039 26.0702 55.3636 26.9181 53.4455 26.9181C51.8034 26.9181 50.4375 26.4357 49.3331 25.4561C48.2287 24.4766 47.6765 23.2631 47.6765 21.8012C47.6765 20.2515 48.2578 19.0234 49.4203 18.1169C50.5828 17.1959 52.1376 16.7427 54.0703 16.7427C55.7269 16.7427 57.0928 17.0497 58.1536 17.6637V17.0205C58.1536 16.0409 57.7758 15.2222 57.0056 14.5351C56.2355 13.8479 55.3345 13.5117 54.3028 13.5117C52.748 13.5117 51.5128 14.1696 50.6119 15.5L48.156 13.9503C49.5075 11.9766 51.5128 10.9971 54.1575 10.9971ZM50.5537 21.845C50.5537 22.576 50.8589 23.19 51.4837 23.6725C52.094 24.155 52.8206 24.4035 53.6489 24.4035C54.8259 24.4035 55.8722 23.9649 56.7877 23.0877C57.7032 22.2105 58.1682 21.1871 58.1682 20.0029C57.2963 19.3158 56.0902 18.9649 54.5353 18.9649C53.4019 18.9649 52.4573 19.2427 51.7017 19.7836C50.9315 20.3538 50.5537 21.0409 50.5537 21.845Z" fill="#C0C0D6"/>
<path d="M76.0002 11.4796L66.7002 33H63.8229L67.2814 25.4708L61.1492 11.4796H64.1862L68.6038 22.2105H68.6619L72.9632 11.4796H76.0002Z" fill="#C0C0D6"/>
<path d="M1.32424 9.89771L5.45943 13.1254C5.20804 13.8827 5.06999 14.6886 5.06999 15.522C5.06999 16.3553 5.20804 17.1609 5.45943 17.9182L1.3238 21.1462C0.47808 19.4547 0 17.5454 0 15.522C0 13.4986 0.477063 11.5892 1.32424 9.89771Z" fill="#C0C0D6"/>
<path d="M24.1402 13.174C24.2913 14.0161 24.3727 14.8918 24.3727 15.807C24.3727 19.613 23.0321 22.8345 20.6923 25.0143L16.6835 21.886L16.6812 21.8875V21.8859C18.0283 20.9737 18.9074 19.6052 19.1806 18L12.4453 17.9985V13.174H24.1402Z" fill="#C0C0D6" fill-opacity="0.6"/>
<path d="M1.32458 21.1456C3.37366 25.2358 7.58461 28.0424 12.4494 28.0424C15.8119 28.0424 18.6368 26.9298 20.693 25.0146L16.6838 21.886C15.5678 22.6433 14.1307 23.0863 12.4494 23.0863C9.20163 23.0863 6.44648 20.8845 5.4598 17.9167C5.45996 17.9172 5.45923 17.9177 5.45939 17.9181L1.32458 21.1456Z" fill="#C0C0D6" fill-opacity="0.4"/>
<path d="M12.4492 7.95614C14.2845 7.95614 15.928 8.5921 17.2256 9.83479L20.7786 6.26316C18.6207 4.24123 15.8074 3 12.4492 3C7.58554 3 3.3729 5.80702 1.32397 9.89766L5.4596 13.1257C6.44628 10.1579 9.20142 7.95614 12.4492 7.95614Z" fill="#C0C0D6" fill-opacity="0.8"/>
</svg>
