<svg width="168" height="36" viewBox="0 0 168 36" fill="none" xmlns="http://www.w3.org/2000/svg">
<g clip-path="url(#clip0)">
<path d="M74.5542 23.1451V16.7725C74.5542 14.3721 73.053 12.7578 70.6344 12.7365C69.9453 12.6908 69.2569 12.8342 68.6408 13.1518C68.0247 13.4694 67.5035 13.9495 67.1315 14.5421C66.7925 13.9672 66.3075 13.496 65.7277 13.1782C65.148 12.8604 64.4948 12.7078 63.837 12.7365C63.2637 12.7072 62.6928 12.8309 62.1808 13.0954C61.6688 13.36 61.2336 13.7561 60.9181 14.2447V12.9914H58.7495V23.1451H60.9388V17.5159C60.9388 15.7528 61.898 14.8184 63.3783 14.8184C64.817 14.8184 65.5469 15.7741 65.5469 17.4947V23.1451H67.7362V17.5159C67.7362 15.7528 68.737 14.8184 70.1757 14.8184C71.656 14.8184 72.3649 15.7741 72.3649 17.4947V23.1451H74.5542ZM106.956 12.9914H103.411V9.91146H101.222V12.9914H99.1995V15.0094H101.222V19.6401C101.222 21.998 102.119 23.4 104.683 23.4C105.641 23.4029 106.581 23.1305 107.394 22.614L106.768 20.7234C106.187 21.0768 105.527 21.2742 104.85 21.297C103.766 21.297 103.411 20.6172 103.411 19.5977V15.0094H106.956V12.9914ZM125.45 12.7365C124.922 12.7206 124.399 12.8504 123.936 13.1121C123.474 13.3738 123.089 13.7577 122.823 14.2234V12.9914H120.676V23.1451H122.844V17.4522C122.844 15.7741 123.553 14.8395 124.971 14.8395C125.435 14.833 125.895 14.9196 126.326 15.0944L126.993 13.0127C126.498 12.8321 125.976 12.7387 125.45 12.7365ZM97.4898 13.7987C96.2624 13.0551 94.8511 12.6864 93.4239 12.7365C90.9009 12.7365 89.2747 13.9685 89.2747 15.9865C89.2747 17.6434 90.484 18.663 92.7149 18.9817L93.7367 19.1304C94.9251 19.3002 95.4881 19.6188 95.4881 20.1924C95.4881 20.9784 94.6957 21.4244 93.2154 21.4244C92.0247 21.4593 90.857 21.0852 89.9001 20.3624L88.8785 22.0828C90.1415 22.9816 91.6545 23.4434 93.1946 23.4C96.0719 23.4 97.7399 22.0191 97.7399 20.0862C97.7399 18.3018 96.4264 17.3672 94.2579 17.0485L93.2363 16.8998C92.298 16.7724 91.5474 16.5814 91.5474 15.9017C91.5474 15.1581 92.2562 14.7121 93.4448 14.7121C94.5362 14.7288 95.6054 15.0286 96.5515 15.583L97.4898 13.7987ZM155.579 12.7365C155.051 12.7206 154.528 12.8504 154.065 13.1121C153.603 13.3738 153.218 13.7577 152.952 14.2234V12.9914H150.805V23.1451H152.973V17.4522C152.973 15.7741 153.682 14.8395 155.1 14.8395C155.564 14.8329 156.024 14.9196 156.455 15.0944L157.122 13.0127C156.627 12.8321 156.105 12.7387 155.579 12.7365ZM127.64 18.0682C127.64 21.1484 129.746 23.4 132.957 23.4C134.259 23.4666 135.538 23.0347 136.543 22.1891L135.5 20.4048C134.751 20.987 133.837 21.3073 132.894 21.3181C131.163 21.297 129.892 20.0225 129.892 18.0682C129.892 16.114 131.163 14.8394 132.894 14.8184C133.837 14.8292 134.751 15.1495 135.5 15.7317L136.543 13.9474C135.538 13.1018 134.259 12.6699 132.957 12.7365C129.746 12.7365 127.64 14.9881 127.64 18.0682ZM147.948 18.0682V12.9914H145.78V14.2234C145.41 13.7375 144.931 13.349 144.383 13.0903C143.835 12.8316 143.234 12.7103 142.631 12.7365C139.837 12.7365 137.648 14.9671 137.648 18.0682C137.648 21.1695 139.837 23.4 142.631 23.4C143.234 23.4263 143.835 23.3049 144.383 23.0463C144.931 22.7876 145.41 22.399 145.78 21.913V23.1451H147.948V18.0682ZM139.879 18.0682C139.879 16.2839 141.026 14.8184 142.902 14.8184C144.695 14.8184 145.905 16.2202 145.905 18.0682C145.905 19.9162 144.695 21.3181 142.902 21.3181C141.026 21.3181 139.879 19.8525 139.879 18.0682ZM113.712 12.7365C110.792 12.7365 108.749 14.9032 108.749 18.0682C108.749 21.297 110.876 23.4 113.858 23.4C115.345 23.4532 116.8 22.9465 117.944 21.9767L116.881 20.3411C116.057 21.0134 115.038 21.387 113.983 21.4031C112.586 21.4031 111.314 20.7447 111.001 18.9178H118.403C118.424 18.6418 118.445 18.3657 118.445 18.0682C118.424 14.9032 116.506 12.7365 113.712 12.7365ZM113.67 14.7121C115.067 14.7121 115.963 15.6041 116.193 17.1761H111.022C111.251 15.7104 112.127 14.7121 113.67 14.7121ZM168.069 18.0682V8.91309H165.9V14.2234C165.53 13.7375 165.051 13.349 164.504 13.0903C163.956 12.8316 163.355 12.7103 162.752 12.7365C159.958 12.7365 157.769 14.9671 157.769 18.0682C157.769 21.1695 159.958 23.4 162.752 23.4C163.355 23.4262 163.956 23.3049 164.504 23.0462C165.051 22.7875 165.53 22.399 165.9 21.913V23.1451H168.069V18.0682ZM160 18.0682C160 16.2839 161.147 14.8184 163.023 14.8184C164.816 14.8184 166.025 16.2202 166.025 18.0682C166.025 19.9162 164.816 21.3181 163.023 21.3181C161.147 21.3181 160 19.8525 160 18.0682ZM86.7727 18.0682V12.9914H84.6041V14.2234C84.234 13.7375 83.755 13.3489 83.2072 13.0902C82.6595 12.8316 82.0589 12.7103 81.4557 12.7365C78.6618 12.7365 76.4725 14.9671 76.4725 18.0682C76.4725 21.1695 78.6618 23.4 81.4557 23.4C82.0589 23.4263 82.6595 23.305 83.2072 23.0463C83.755 22.7876 84.234 22.399 84.6041 21.913V23.1451H86.7727V18.0682ZM78.7036 18.0682C78.7036 16.2839 79.8503 14.8184 81.7269 14.8184C83.5199 14.8184 84.7292 16.2202 84.7292 18.0682C84.7292 19.9162 83.5199 21.3181 81.7269 21.3181C79.8503 21.3181 78.7036 19.8525 78.7036 18.0682Z" fill="#C0C0D6"/>
<path d="M18.5236 18.0006C18.5215 15.6885 19.0358 13.4063 20.0275 11.3267C21.0191 9.24712 22.4622 7.42462 24.2475 5.99719C22.0367 4.22684 19.3816 3.12589 16.5857 2.82017C13.7897 2.51445 10.9658 3.01628 8.43655 4.26833C5.90734 5.52038 3.77492 7.47213 2.28304 9.90048C0.791157 12.3288 0 15.1358 0 18.0006C0 20.8653 0.791157 23.6723 2.28304 26.1006C3.77492 28.529 5.90734 30.4807 8.43655 31.7328C10.9658 32.9848 13.7897 33.4867 16.5857 33.181C19.3816 32.8752 22.0367 31.7743 24.2475 30.0039C22.4623 28.5765 21.0192 26.754 20.0275 24.6744C19.0358 22.5948 18.5215 20.3126 18.5236 18.0006Z" fill="#C0C0D6"/>
<path d="M48.5247 18.0006C48.5248 20.8653 47.7337 23.6722 46.2419 26.1006C44.7501 28.5289 42.6178 30.4807 40.0886 31.7328C37.5595 32.9848 34.7355 33.4867 31.9396 33.181C29.1437 32.8752 26.4887 31.7743 24.278 30.0039C26.0616 28.5751 27.5036 26.7523 28.4951 24.673C29.4866 22.5937 30.0018 20.3122 30.0018 18.0006C30.0018 15.6889 29.4866 13.4074 28.4951 11.3281C27.5036 9.24886 26.0616 7.42607 24.278 5.9972C26.4887 4.22685 29.1437 3.12588 31.9396 2.82016C34.7355 2.51445 37.5595 3.0163 40.0886 4.26836C42.6178 5.52043 44.7501 7.47219 46.2419 9.90054C47.7337 12.3289 48.5248 15.1358 48.5247 18.0006Z" fill="#C0C0D6" fill-opacity="0.6"/>
<path fill-rule="evenodd" clip-rule="evenodd" d="M24.2788 5.99811H24.2463C22.4616 7.4254 21.0189 9.24757 20.0274 11.3267C19.0358 13.4063 18.5215 15.6886 18.5236 18.0006C18.5215 20.3126 19.0358 22.5948 20.0275 24.6744C21.0191 26.754 22.4622 28.5765 24.2475 30.0039L24.2463 30.0049H24.2789C24.2785 30.0046 24.2781 30.0043 24.2777 30.0039C26.0614 28.5751 27.5034 26.7523 28.4949 24.673C29.4864 22.5937 30.0016 20.3122 30.0016 18.0006C30.0016 15.6889 29.4864 13.4074 28.4949 11.3282C27.5036 9.24931 26.062 7.42684 24.2788 5.99811Z" fill="#C0C0D6" fill-opacity="0.8"/>
</g>
<defs>
<clipPath id="clip0">
<rect width="168" height="36" fill="white"/>
</clipPath>
</defs>
</svg>
