<svg width="134" height="40" viewBox="0 0 134 40" fill="none" xmlns="http://www.w3.org/2000/svg">
<path d="M10.5539 27.8967V21.2028H13.4381C18.8036 21.2028 22.0283 18.2096 22.0283 13.7362C22.0283 9.52121 18.76 7.07495 14.0591 7.07495H7.0813V27.8967H10.5539ZM13.9039 10.1715C16.6628 10.1715 18.5339 11.4423 18.5339 14.1389C18.5339 16.6178 16.4559 18.1062 13.7268 18.1062H10.5539V10.1715H13.9039ZM70.222 20.6151C70.222 16.3076 66.9673 13.0532 62.6559 13.0532C61.6674 13.0518 60.6884 13.2449 59.7746 13.6216C58.8609 13.9983 58.0304 14.5511 57.3306 15.2485C56.6308 15.9459 56.0753 16.7743 55.696 17.6862C55.3166 18.5982 55.1208 19.5758 55.1198 20.5634V20.6777C55.1198 25.0151 58.2519 28.1743 62.6559 28.1743C63.6357 28.1887 64.6087 28.01 65.5193 27.6485C66.4299 27.287 67.2603 26.7497 67.9629 26.0674C68.6656 25.3851 69.2268 24.5711 69.6144 23.672C70.002 22.7728 70.2085 21.8062 70.222 20.8273C70.222 20.7539 70.222 20.6831 70.222 20.6124V20.6151ZM58.4071 20.6151C58.4071 18.1362 60.2374 16.1416 62.6559 16.2151C65.3277 16.294 66.9918 18.1525 66.9346 20.6151C66.8774 23.0777 65.0744 25.0151 62.6559 25.0151C60.2374 25.0151 58.4044 23.094 58.4044 20.6151H58.4071ZM102.91 21.494C102.987 20.9917 103.018 20.4835 103.003 19.9756C103.003 15.9158 99.9035 13.0641 95.9652 13.0641C93.9987 13.0401 92.1032 13.7975 90.6956 15.1696C89.288 16.5418 88.4835 18.4164 88.4591 20.3811V20.5634C88.4591 24.9933 91.406 28.1824 95.8699 28.1824C98.8795 28.1824 101.391 26.7566 102.445 24.7756L99.8709 23.3498C99.19 24.4654 97.7328 25.2545 96.0878 25.2545C93.7918 25.2545 92.1795 23.8586 91.839 21.5049L102.91 21.494ZM92.0161 18.9824C92.4518 17.0613 93.879 15.8858 95.8617 15.8858C97.8445 15.8858 99.4024 17.1566 99.5849 18.9824H92.0161ZM51.4919 13.3307L47.4583 23.7117L43.8605 13.3307H40.1101L45.5055 27.894L43.2722 33.0069H46.8401L55.0571 13.3307H51.4919ZM130.359 13.3933C129.894 13.2631 129.414 13.1999 128.931 13.2056C127.504 13.2056 125.892 14.0219 125.211 15.4069V13.3307H121.924V27.894H125.211V20.1335C125.211 17.4369 127.009 16.3239 128.869 16.3239C129.359 16.3142 129.849 16.3663 130.326 16.479L130.359 13.4124V13.3933ZM119.502 21.494C119.579 20.9917 119.61 20.4835 119.595 19.9756C119.595 15.9158 116.496 13.0641 112.557 13.0641C110.591 13.0401 108.695 13.7975 107.288 15.1696C105.88 16.5418 105.076 18.4164 105.051 20.3811V20.5634C105.051 24.9933 107.998 28.1824 112.462 28.1824C115.458 28.1824 117.983 26.7566 119.039 24.7756L116.463 23.3498C115.782 24.4654 114.325 25.2545 112.68 25.2545C110.387 25.2545 108.772 23.8586 108.431 21.5049L119.502 21.494ZM108.608 18.9824C109.044 17.0613 110.471 15.8858 112.454 15.8858C114.437 15.8858 115.994 17.1566 116.177 18.9824H108.608ZM34.8999 20.5824C34.9148 21.1758 34.8123 21.7662 34.5986 22.3199C34.3848 22.8736 34.0638 23.3798 33.654 23.8095C33.2441 24.2391 32.7535 24.5838 32.2102 24.8239C31.6669 25.0639 31.0816 25.1945 30.4877 25.2083H30.278C27.7342 25.2083 26.0292 23.2246 26.0292 20.5824C26.0398 19.3748 26.5225 18.2192 27.3745 17.3625C28.2264 16.5057 29.3799 16.0158 30.5885 15.9974C33.1623 15.9974 34.8999 17.9811 34.8999 20.5824ZM86.2257 19.5892C86.2257 15.5294 84.2402 13.0586 80.5198 13.0586C78.5643 13.0586 76.7667 13.8967 75.7754 15.2355V13.3307H72.4553V27.894H75.7754V20.0028C75.7754 17.5539 77.543 16.0056 79.651 16.0056C81.7591 16.0056 82.8757 17.4314 82.8757 19.8477V27.9049H86.2257V19.5892ZM34.8999 13.3307V15.2355C33.9385 13.9647 32.3861 13.0586 30.0601 13.0586C26.0292 13.0586 22.6792 16.6232 22.6792 20.8056C22.6792 24.9879 25.5635 28.1797 29.4391 28.1797C31.953 28.1797 33.8432 27.2818 34.8863 25.796V27.9022H38.141V13.3307H34.8999Z" fill="#C0C0D6"/>
</svg>
