<svg width="120" height="36" viewBox="0 0 120 36" fill="none" xmlns="http://www.w3.org/2000/svg">
<path d="M44.72 9.69818H38.1016C37.8825 9.69805 37.6706 9.7749 37.504 9.91489C37.3374 10.0549 37.227 10.2488 37.1929 10.4617L34.5161 27.1581C34.5038 27.2356 34.5087 27.3148 34.5305 27.3902C34.5523 27.4656 34.5904 27.5355 34.6423 27.5951C34.6942 27.6546 34.7586 27.7024 34.831 27.7351C34.9034 27.7678 34.9822 27.7847 35.0619 27.7846H38.2216C38.4409 27.7847 38.6529 27.7077 38.8196 27.5675C38.9862 27.4273 39.0964 27.2332 39.1303 27.0201L39.8523 22.5168C39.8862 22.3039 39.9962 22.1098 40.1627 21.9697C40.3291 21.8295 40.5409 21.7524 40.76 21.7523H42.8552C47.2149 21.7523 49.731 19.6768 50.3881 15.5639C50.6842 13.7645 50.4007 12.3506 49.5442 11.3605C48.6036 10.2732 46.9352 9.69818 44.72 9.69818ZM45.4836 15.7962C45.1216 18.1325 43.3071 18.1325 41.5526 18.1325H40.5539L41.2545 13.7692C41.275 13.6416 41.3412 13.5253 41.4411 13.4413C41.5409 13.3574 41.668 13.3113 41.7994 13.3113H42.2571C43.4523 13.3113 44.5797 13.3113 45.1623 13.9815C45.5097 14.3814 45.6161 14.9755 45.4836 15.7962ZM64.5036 15.721H61.3342C61.2028 15.721 61.0758 15.7671 60.9759 15.851C60.876 15.935 60.8099 16.0512 60.7894 16.1789L60.6491 17.051L60.4274 16.7349C59.7413 15.7552 58.2113 15.4277 56.6842 15.4277C53.182 15.4277 50.1907 18.0373 49.6081 21.698C49.3052 23.5241 49.7358 25.2702 50.7887 26.4879C51.7545 27.6075 53.1365 28.074 54.7807 28.074C57.6026 28.074 59.1674 26.2889 59.1674 26.2889L59.0261 27.1553C59.0136 27.2327 59.0182 27.3119 59.0397 27.3875C59.0612 27.463 59.0992 27.5331 59.1509 27.5928C59.2026 27.6525 59.2668 27.7005 59.3392 27.7334C59.4115 27.7664 59.4903 27.7835 59.57 27.7836H62.4249C62.6441 27.7837 62.8562 27.7067 63.0228 27.5666C63.1894 27.4264 63.2996 27.2322 63.3336 27.0191L65.0465 16.3474C65.0591 16.2701 65.0545 16.1911 65.033 16.1157C65.0115 16.0403 64.9736 15.9704 64.922 15.9109C64.8704 15.8513 64.8063 15.8035 64.734 15.7707C64.6618 15.7379 64.5831 15.7209 64.5036 15.721ZM60.0858 21.7894C59.78 23.5707 58.3429 24.7665 56.51 24.7665C55.5897 24.7665 54.8542 24.4761 54.382 23.9259C53.9136 23.3794 53.7355 22.6015 53.8845 21.7352C54.17 19.9691 55.6313 18.7342 57.4361 18.7342C58.3361 18.7342 59.0678 19.0284 59.5497 19.5835C60.0326 20.1442 60.2242 20.9268 60.0858 21.7894ZM81.3829 15.721H78.1981C78.0479 15.7212 77.9 15.7575 77.7673 15.8267C77.6346 15.8958 77.521 15.9958 77.4365 16.118L73.0439 22.4835L71.182 16.3665C71.1248 16.1799 71.0081 16.0164 70.8492 15.9001C70.6902 15.7839 70.4974 15.721 70.2994 15.721H67.1697C67.0818 15.7207 66.9952 15.7411 66.917 15.7805C66.8388 15.8199 66.7713 15.877 66.7201 15.9473C66.6688 16.0175 66.6354 16.0987 66.6226 16.1842C66.6097 16.2697 66.6178 16.357 66.6461 16.4388L70.1542 26.5669L66.8561 31.1473C66.7975 31.2285 66.7628 31.324 66.7557 31.4234C66.7486 31.5227 66.7694 31.6221 66.8158 31.7106C66.8623 31.799 66.9326 31.8732 67.0191 31.925C67.1056 31.9768 67.2049 32.0042 67.3062 32.0041H70.4871C70.6356 32.0043 70.782 31.9691 70.9136 31.9014C71.0453 31.8338 71.1583 31.7357 71.2429 31.6157L81.8358 16.573C81.8932 16.4917 81.9269 16.3964 81.9332 16.2975C81.9395 16.1986 81.9181 16.1 81.8715 16.0122C81.8248 15.9244 81.7546 15.8508 81.6685 15.7995C81.5824 15.7482 81.4836 15.721 81.3829 15.721Z" fill="#C0C0D6"/>
<path d="M91.9284 9.69816H85.3091C85.0901 9.69825 84.8784 9.7752 84.712 9.91518C84.5456 10.0551 84.4354 10.249 84.4013 10.4617L81.7245 27.1581C81.7121 27.2354 81.7168 27.3145 81.7385 27.3899C81.7601 27.4653 81.798 27.5351 81.8497 27.5947C81.9014 27.6542 81.9656 27.702 82.0379 27.7348C82.1102 27.7676 82.1888 27.7846 82.2684 27.7846H85.6652C85.8184 27.7843 85.9666 27.7303 86.0829 27.6322C86.1993 27.5342 86.2763 27.3984 86.3 27.2495L87.0597 22.5168C87.0936 22.3038 87.2037 22.1098 87.3701 21.9696C87.5365 21.8295 87.7484 21.7524 87.9675 21.7523H90.0616C94.4223 21.7523 96.9374 19.6768 97.5955 15.5638C97.8926 13.7644 97.6071 12.3506 96.7507 11.3605C95.811 10.2732 94.1436 9.69816 91.9284 9.69816ZM92.692 15.7961C92.331 18.1325 90.5165 18.1325 88.761 18.1325H87.7633L88.4649 13.7692C88.485 13.6415 88.5509 13.5252 88.6506 13.4412C88.7504 13.3572 88.8774 13.3111 89.0087 13.3112H89.4665C90.6607 13.3112 91.7891 13.3112 92.3716 13.9815C92.7191 14.3814 92.8245 14.9755 92.692 15.7961ZM111.711 15.7209H108.544C108.412 15.7206 108.285 15.7666 108.185 15.8506C108.085 15.9347 108.02 16.0511 108 16.1789L107.859 17.051L107.637 16.7349C106.951 15.7552 105.422 15.4277 103.895 15.4277C100.392 15.4277 97.402 18.0373 96.8194 21.698C96.5174 23.5241 96.9462 25.2701 97.9991 26.4878C98.9668 27.6075 100.347 28.074 101.991 28.074C104.813 28.074 106.378 26.2889 106.378 26.2889L106.236 27.1552C106.224 27.2329 106.229 27.3122 106.25 27.3879C106.272 27.4636 106.31 27.5337 106.362 27.5935C106.414 27.6532 106.478 27.7012 106.551 27.734C106.623 27.7668 106.702 27.7838 106.782 27.7836H109.636C109.855 27.7835 110.067 27.7064 110.233 27.5662C110.4 27.4261 110.51 27.232 110.544 27.0191L112.258 16.3474C112.27 16.2699 112.265 16.1907 112.243 16.1152C112.221 16.0398 112.183 15.9699 112.131 15.9104C112.079 15.8509 112.014 15.8031 111.942 15.7704C111.87 15.7377 111.791 15.7208 111.711 15.7209ZM107.293 21.7894C106.989 23.5707 105.55 24.7665 103.717 24.7665C102.799 24.7665 102.062 24.4761 101.589 23.9258C101.121 23.3793 100.945 22.6015 101.092 21.7351C101.379 19.969 102.839 18.7342 104.644 18.7342C105.544 18.7342 106.275 19.0284 106.757 19.5835C107.242 20.1442 107.434 20.9268 107.293 21.7894ZM115.447 10.1561L112.731 27.1581C112.719 27.2354 112.723 27.3145 112.745 27.3899C112.766 27.4653 112.804 27.5351 112.856 27.5947C112.908 27.6542 112.972 27.702 113.044 27.7348C113.117 27.7676 113.195 27.7846 113.275 27.7846H116.006C116.46 27.7846 116.845 27.4609 116.915 27.02L119.593 10.3246C119.606 10.2472 119.601 10.1681 119.579 10.0927C119.558 10.0173 119.52 9.94736 119.468 9.88774C119.416 9.82813 119.352 9.78023 119.28 9.74734C119.208 9.71445 119.129 9.69734 119.049 9.6972H115.991C115.86 9.69766 115.733 9.74409 115.634 9.82818C115.534 9.91227 115.468 10.0285 115.447 10.1561Z" fill="#C0C0D6" fill-opacity="0.6"/>
<path d="M22.3033 10.5721C22.2762 10.7425 22.2453 10.9167 22.2104 11.0957C21.0133 17.1423 16.9179 19.2311 11.6872 19.2311H9.02398C8.3843 19.2311 7.84527 19.6881 7.74559 20.3089L6.38205 28.8165L5.99592 31.2281C5.98054 31.3238 5.98641 31.4216 6.01313 31.5148C6.03985 31.608 6.08679 31.6944 6.15071 31.7681C6.21463 31.8417 6.29402 31.9009 6.38341 31.9414C6.47279 31.982 6.57006 32.003 6.6685 32.0031H11.392C11.9514 32.0031 12.4266 31.6032 12.5146 31.0605L12.5611 30.8244L13.4504 25.272L13.5075 24.9673C13.5946 24.4227 14.0708 24.0229 14.6301 24.0229H15.3366C19.913 24.0229 23.4956 22.1949 24.5427 16.9052C24.9801 14.6955 24.7537 12.8504 23.5962 11.5527C23.2294 11.1513 22.7913 10.819 22.3033 10.5721Z" fill="#C0C0D6" fill-opacity="0.6"/>
<path d="M21.0533 10.081C20.6711 9.97217 20.2822 9.88727 19.8891 9.82675C19.1123 9.70931 18.3272 9.65296 17.5414 9.65824H10.4265C10.1557 9.65803 9.89383 9.75313 9.68813 9.92635C9.48242 10.0996 9.34649 10.3395 9.3049 10.6027L7.79135 20.0339L7.7478 20.309C7.79495 20.0088 7.94978 19.7351 8.18426 19.5374C8.41874 19.3397 8.71739 19.2311 9.02619 19.2313H11.6894C16.9201 19.2313 21.0155 17.1415 22.2126 11.0959C22.2485 10.9169 22.2785 10.7426 22.3055 10.5722C21.9897 10.4093 21.6604 10.2726 21.3214 10.1638C21.2325 10.1348 21.1431 10.1072 21.0533 10.081Z" fill="#C0C0D6" fill-opacity="0.8"/>
<path d="M9.30378 10.6027C9.34501 10.3394 9.48088 10.0994 9.68669 9.92622C9.8925 9.75309 10.1546 9.65834 10.4254 9.65916H17.5402C18.3831 9.65916 19.1699 9.71343 19.888 9.82768C20.3739 9.90281 20.8531 10.0152 21.3212 10.1638C21.6744 10.279 22.0025 10.4151 22.3054 10.5722C22.6615 8.3377 22.3025 6.81629 21.0744 5.43866C19.7206 3.92201 17.277 3.27271 14.1502 3.27271H5.07282C4.43411 3.27271 3.88927 3.7297 3.79056 4.3514L0.00959004 27.9293C-0.00802107 28.0388 -0.00132064 28.1507 0.0292304 28.2574C0.0597815 28.3641 0.113458 28.463 0.186568 28.5473C0.259678 28.6316 0.350486 28.6993 0.452746 28.7458C0.555006 28.7923 0.66629 28.8165 0.778945 28.8166H6.38314L7.79024 20.0338L9.30378 10.6027Z" fill="#C0C0D6"/>
</svg>
