<svg width="85" height="33" viewBox="0 0 85 33" fill="none" xmlns="http://www.w3.org/2000/svg">
<g clip-path="url(#clip0_521_6554)">
<path d="M20.0883 27.4566V21.9132H22.8331H25.5779V27.4566V33H22.8331H20.0883V27.4566ZM74.1554 32.1461V31.473H78.3009C81.092 31.473 82.4673 31.4705 82.5102 31.4655C82.7656 31.4357 83.01 31.3336 83.2115 31.1725C83.277 31.1201 83.4028 30.9904 83.4511 30.9253C83.5624 30.7754 83.643 30.5958 83.6841 30.4057L83.6998 30.3333L83.7018 26.1233L83.7038 21.9132H84.3519H85V26.743C85 30.0834 84.9977 31.5959 84.9925 31.6478C84.9613 31.9603 84.8182 32.2535 84.5898 32.4731C84.4156 32.6406 84.2033 32.7513 83.9588 32.8024C83.902 32.8142 83.6185 32.815 79.027 32.817L74.1554 32.8192V32.1461ZM4.77771 27.4736C4.55845 27.4481 4.41036 27.4017 4.25024 27.3084C3.86827 27.0857 3.61963 26.6915 3.57678 26.2408C3.57106 26.1806 3.57008 25.679 3.57324 24.4316C3.58387 20.2332 3.599 14.5922 3.60544 12.4329C3.60929 11.1413 3.61273 9.41368 3.61308 8.59375C3.61344 7.77382 3.61631 6.96944 3.61947 6.80625C3.62456 6.54337 3.62696 6.50129 3.64052 6.43717C3.72541 6.03557 3.98105 5.70607 4.34563 5.52835C4.47445 5.46555 4.59415 5.42814 4.75292 5.40104C4.82247 5.38917 4.96747 5.3882 6.98948 5.38606L9.15167 5.38379V13.7606V22.1375H13.2352H17.3188V24.8079V27.4783L11.0589 27.4772C7.61591 27.4766 4.7894 27.475 4.77771 27.4736ZM27.8588 20.6322V13.7862H35.8948H43.9308V12.147V10.5079H35.8948H27.8588V7.94605V5.38421H38.8167H49.7746V12.1217V18.8592L45.1808 18.861L40.5871 18.8628L45.1532 23.1434C47.6645 25.4977 49.7325 27.4361 49.7487 27.4508L49.7781 27.4777L45.8717 27.4778L41.9652 27.4778L37.4567 23.168L32.9481 18.8582L32.9463 23.1682L32.9446 27.4783H30.4017H27.8588V20.6322ZM52.0554 16.4095V5.34079H54.7329H57.4104V16.4095V27.4783H54.7329H52.0554V16.4095ZM59.7338 24.6234V21.8625H66.9446H74.1554V20.4947V19.127H66.9446H59.7338V12.2556V5.38421H70.5571H81.3804V8.12336V10.8625H74.1731H66.9658V12.2556V13.6487H74.1731H81.3804V20.5164V27.3842H70.5571H59.7338V24.6234ZM11.8292 16.4095V13.6053H14.5527H17.2763V16.4095V19.2138H14.5527H11.8292V16.4095ZM15.6683 16.3878V15.2625H14.5527H13.4371V16.383C13.4371 16.9993 13.4392 17.5057 13.4418 17.5083C13.4444 17.511 13.9464 17.5132 14.5574 17.5132H15.6683V16.3878ZM20.0883 15.0382V10.9059H15.9587H11.8291L11.8309 8.14687L11.8327 5.38783H18.0873H24.3419L24.434 5.4048C25.0049 5.51004 25.4295 5.91548 25.5552 6.47528L25.5743 6.5602L25.5761 12.8653L25.578 19.1704H22.8332H20.0883V15.0382ZM0.0117228 10.8927C0.000839423 10.8804 0 10.5359 0 6.08095C0 2.77772 0.00232084 1.2591 0.00744788 1.20751C0.0481428 0.798017 0.258775 0.441149 0.589526 0.221312C0.76136 0.107101 0.985385 0.0289676 1.20315 0.00729916C1.25165 0.00247289 2.89332 0 6.04882 0C10.6632 0 10.8215 0.000438072 10.8329 0.0132343C10.8436 0.0253415 10.8446 0.0816406 10.8446 0.674284C10.8446 1.29269 10.844 1.32264 10.8316 1.33408C10.8196 1.34519 10.5202 1.34605 6.66635 1.34605C3.79115 1.34605 2.49287 1.34841 2.44524 1.35372C2.21004 1.37993 1.98647 1.46847 1.80979 1.60537C1.74675 1.65422 1.64774 1.75437 1.59754 1.82007C1.45489 2.00676 1.373 2.21832 1.34624 2.46929C1.34106 2.51787 1.33875 3.8274 1.33875 6.71137C1.33875 10.4943 1.33771 10.8842 1.32762 10.8945C1.31766 10.9047 1.24827 10.9059 0.669967 10.9059C0.0526234 10.9059 0.0229166 10.9053 0.0117228 10.8927Z" fill="#C0C0D6"/>
</g>
<defs>
<clipPath id="clip0_521_6554">
<rect width="85" height="33" fill="white"/>
</clipPath>
</defs>
</svg>
