<svg width="69" height="25" viewBox="0 0 69 25" fill="none" xmlns="http://www.w3.org/2000/svg">
<g clip-path="url(#clip0_522_6558)">
<path d="M54.872 3.01214L60.6058 1.98775V24.0731H54.872V3.01214ZM63.2419 3.01214V24.0609H68.9757V1.98775L63.2419 3.01214ZM46.7208 24.0609H52.4546V7.91458H46.7208V24.0609ZM8.8315 10.1951C8.10262 10.1463 6.42622 10.0365 6.42622 8.52434C6.42622 6.69507 8.84364 6.69507 9.74259 6.69507C11.334 6.69507 13.3991 7.17068 14.869 7.6097C14.869 7.6097 15.6951 7.90238 16.3875 8.19507L16.4482 8.20726V3.20726L16.3632 3.18287C14.626 2.57312 12.6095 1.98775 8.85579 1.98775C2.39312 1.98775 0.109314 5.76824 0.109314 8.99995C0.109314 10.8658 0.911074 15.256 8.30914 15.7682C8.94083 15.8048 10.6051 15.9024 10.6051 17.4756C10.6051 18.7682 9.24453 19.5365 6.94857 19.5365C4.43396 19.5365 2.00438 18.8902 0.522342 18.2804V23.439C2.73326 24.0243 5.23572 24.317 8.16336 24.317C14.4803 24.317 17.3107 20.7438 17.3107 17.1951C17.3107 13.1707 14.1523 10.5609 8.8315 10.1951ZM43.4894 7.68287C38.1929 7.8536 35.5083 10.2438 35.5083 14.9878V24.0731H41.2907V16.6585C41.2907 13.817 41.6551 12.5975 45.0201 12.4878V7.75604C44.437 7.64629 43.4894 7.68287 43.4894 7.68287ZM27.9401 7.90239C27.8186 8.21946 26.8954 10.8292 24.6723 13.5243V1.98775L18.7563 3.15848V24.0609H24.6723V17.5975C26.3852 20.1829 27.2355 24.0609 27.2355 24.0609H34.3178C33.6132 21.1341 30.5519 15.7438 30.5519 15.7438C33.2973 12.2438 34.5121 8.51214 34.7065 7.89019H27.9401V7.90239ZM49.5755 6.3658C51.1304 6.3658 52.406 5.09751 52.406 3.53653C52.406 1.97556 51.1426 0.695068 49.5755 0.695068C48.0206 0.695068 46.7572 1.96336 46.7572 3.53653C46.7572 5.09751 48.0206 6.3658 49.5755 6.3658Z" fill="url(#paint0_linear_522_6558)"/>
</g>
<defs>
<linearGradient id="paint0_linear_522_6558" x1="0.121466" y1="12.4984" x2="68.9795" y2="12.4984" gradientUnits="userSpaceOnUse">
<stop stop-color="#9C9CB1"/>
<stop offset="1" stop-color="#535368"/>
</linearGradient>
<clipPath id="clip0_522_6558">
<rect width="69" height="25" fill="white"/>
</clipPath>
</defs>
</svg>
