<svg width="77" height="32" viewBox="0 0 77 32" fill="none" xmlns="http://www.w3.org/2000/svg">
<g clip-path="url(#clip0_211_11182)">
<path fill-rule="evenodd" clip-rule="evenodd" d="M76.4567 16.534C76.4567 11.0654 73.8236 6.75033 68.791 6.75033C63.7372 6.75033 60.6794 11.0654 60.6794 16.4913C60.6794 22.9212 64.2893 26.1682 69.4705 26.1682C71.9974 26.1682 73.9085 25.5915 75.3525 24.7797V20.5073C73.9085 21.2336 72.2522 21.6822 70.15 21.6822C68.0902 21.6822 66.2641 20.9559 66.0305 18.4352H76.4142C76.4142 18.1575 76.4567 17.0467 76.4567 16.534ZM65.9668 14.5047C65.9668 12.0908 67.432 11.0868 68.7697 11.0868C70.0651 11.0868 71.4453 12.0908 71.4453 14.5047H65.9668ZM52.4828 6.75033C50.4018 6.75033 49.0641 7.73298 48.3209 8.41656L48.0448 7.09212H43.3732V32L48.6818 30.8678L48.7031 24.8224C49.4675 25.3778 50.593 26.1682 52.4616 26.1682C56.2626 26.1682 59.7238 23.0921 59.7238 16.3204C59.7026 10.1255 56.1989 6.75033 52.4828 6.75033ZM51.2088 21.4686C49.9559 21.4686 49.2127 21.02 48.7031 20.4646L48.6818 12.5394C49.2339 11.9199 49.9984 11.4927 51.2088 11.4927C53.1411 11.4927 54.4789 13.6716 54.4789 16.47C54.4789 19.3324 53.1623 21.4686 51.2088 21.4686ZM36.0685 5.48999L41.3984 4.33645V0L36.0685 1.13218V5.48999ZM36.0685 7.11349H41.3984V25.8051H36.0685V7.11349ZM30.3564 8.69426L30.0167 7.11349H25.43V25.8051H30.7386V13.1375C31.9915 11.4927 34.1149 11.7917 34.7732 12.0267V7.11349C34.0937 6.85714 31.6092 6.38718 30.3564 8.69426ZM19.7391 2.47797L14.5579 3.58878L14.5367 20.6996C14.5367 23.8611 16.8937 26.1896 20.0364 26.1896C21.7776 26.1896 23.0517 25.8692 23.7525 25.4846V21.1482C23.073 21.4259 19.7179 22.4085 19.7179 19.247V11.6636H23.7525V7.11349H19.7179L19.7391 2.47797ZM5.38455 12.5394C5.38455 11.7063 6.06406 11.3858 7.18949 11.3858C8.80332 11.3858 10.8418 11.8772 12.4557 12.753V7.73298C10.6932 7.02804 8.95196 6.75033 7.18949 6.75033C2.87888 6.75033 0.012207 9.01469 0.012207 12.7957C0.012207 18.6916 8.08134 17.7517 8.08134 20.2937C8.08134 21.2764 7.23196 21.5968 6.04283 21.5968C4.28036 21.5968 2.02949 20.8705 0.245787 19.8879V24.972C2.2206 25.8264 4.21665 26.1896 6.04283 26.1896C10.4596 26.1896 13.4962 23.9893 13.4962 20.1656C13.4749 13.7997 5.38455 14.9319 5.38455 12.5394Z" fill="#C0C0D6"/>
</g>
<defs>
<clipPath id="clip0_211_11182">
<rect width="76.4445" height="32" fill="white" transform="translate(0.012207)"/>
</clipPath>
</defs>
</svg>
